<?xml version="1.0" standalone="no"?><!DOCTYPE svg PUBLIC "-//W3C//DTD SVG 1.1//EN" "http://www.w3.org/Graphics/SVG/1.1/DTD/svg11.dtd"><svg t="1523022103859" class="icon" style="" viewBox="0 0 1024 1024" version="1.1" xmlns="http://www.w3.org/2000/svg" p-id="758" xmlns:xlink="http://www.w3.org/1999/xlink" width="200" height="200"><defs><style type="text/css"></style></defs><path d="M172.8 582.4l6.4-6.4v-25.6h19.2c6.4 0 6.4-6.4 6.4-6.4 0-6.4-6.4-6.4-6.4-6.4h-19.2V512c0-6.4-6.4-6.4-6.4-6.4-6.4 0-12.8 0-12.8 6.4v25.6h-19.2c-6.4 0-12.8 0-12.8 6.4s6.4 6.4 6.4 6.4h19.2V576c6.4 0 12.8 6.4 19.2 6.4zM876.8 473.6c-6.4 0-6.4 6.4-6.4 6.4 0 224-160 339.2-307.2 339.2-153.6 0-268.8-115.2-268.8-268.8 0-121.6 96-217.6 217.6-217.6 96 0 172.8 76.8 172.8 172.8 0 76.8-64 134.4-134.4 134.4-6.4 0-6.4 6.4-6.4 6.4 0 6.4 6.4 6.4 6.4 6.4 83.2 0 153.6-70.4 153.6-153.6 0-102.4-83.2-192-192-192-128 0-236.8 108.8-236.8 236.8 0 160 121.6 281.6 288 281.6 160 0 326.4-128 326.4-358.4-6.4 12.8-6.4 6.4-12.8 6.4z" p-id="759"></path><path d="M518.4 537.6m-70.4 0a70.4 70.4 0 1 0 140.8 0 70.4 70.4 0 1 0-140.8 0Z" p-id="760"></path><path d="M198.4 428.8c6.4 0 6.4 0 12.8-6.4 102.4-192 294.4-224 428.8-153.6 134.4 70.4 185.6 224 115.2 358.4-57.6 108.8-192 147.2-294.4 89.6-44.8-19.2-76.8-57.6-89.6-102.4-12.8-44.8-6.4-89.6 12.8-128 19.2-32 44.8-57.6 83.2-70.4 32-12.8 70.4-6.4 102.4 12.8 6.4 0 6.4 0 12.8-6.4 0-6.4 0-6.4-6.4-12.8-32-19.2-76.8-19.2-115.2-12.8-38.4 12.8-70.4 44.8-89.6 76.8-25.6 44.8-32 96-12.8 147.2 12.8 51.2 51.2 89.6 96 115.2 32 19.2 70.4 25.6 108.8 25.6 83.2 0 166.4-44.8 211.2-128 76.8-140.8 25.6-307.2-121.6-384C512 179.2 300.8 211.2 192 416c0 6.4 0 6.4 6.4 12.8zM192 710.4v19.2c0 6.4 6.4 6.4 6.4 6.4 6.4 0 6.4-6.4 6.4-6.4v-19.2h19.2c6.4 0 6.4-6.4 6.4-6.4 0-6.4-6.4-6.4-6.4-6.4h-12.8v-25.6c0-6.4-6.4-6.4-6.4-6.4-6.4 0-6.4 6.4-6.4 6.4v25.6h-25.6c-6.4 0-6.4 6.4-6.4 6.4 0 6.4 6.4 6.4 6.4 6.4H192zM883.2 345.6h-19.2V320c0-6.4-6.4-6.4-6.4-6.4l-12.8 6.4v25.6h-19.2c-6.4 0-6.4 6.4-6.4 6.4 0 6.4 6.4 6.4 6.4 6.4h19.2V384c0 6.4 6.4 6.4 6.4 6.4l6.4-6.4v-19.2h19.2c6.4 0 6.4-6.4 6.4-6.4 12.8-6.4 6.4-12.8 0-12.8z" p-id="761"></path></svg>